<svg width="2281" height="2284" viewBox="0 0 2281 2284" fill="none" xmlns="http://www.w3.org/2000/svg">
<path d="M847 178.7C831.3 189.4 818.6 198.6 818.8 199.1C818.9 199.7 820.8 202.9 823 206.4C828.9 215.7 835.5 230.4 838.5 240.4C845.3 264.2 841.4 284.3 826.2 303C815.9 315.7 802.7 326.5 765.5 352.5C726 380.1 714.8 388.9 669 427.8C650.7 443.4 624.6 469.8 612.3 485.2C602.5 497.4 582 527.2 582 529.2C582 531.2 580 529.2 572.7 519.5C563.9 507.8 548.8 493 537.2 484.6C527.4 477.7 495.8 458.4 485.8 453.4C463.1 442 436.3 434.6 404 431.1C398.8 430.5 381.7 429.1 366.1 428C325.7 425.1 306.7 422.2 284.5 415.5C241.2 402.4 198.6 374.4 166.4 337.9C160.9 331.6 145.2 312.7 131.5 295.7C117.9 278.8 106.4 265 106.1 265C105.3 265 90.3 355.6 88.5 371.6C84.4 407.3 84 463.4 87.4 495C96.6 578 123 652 164.8 712C182.9 737.9 211 768.4 233.5 786.4C285.6 828.1 345.2 852.2 414.5 859.5C422.2 860.3 433.1 861 438.8 861C444.4 861 449 861.4 449 861.8C449 862.2 447.9 869.8 446.5 878.6C441.3 912.8 440.5 924.5 440.5 969.5C440.6 1012.3 441.1 1022.2 445.6 1053C457.7 1137.9 489.2 1220.3 537.7 1294C563.3 1332.9 588.8 1364 622.6 1397.6L641.8 1416.7L635.8 1428.1C599.6 1496.4 540.7 1550.5 469.5 1581C463 1583.8 436.2 1593.4 410 1602.2C383.9 1611 362.4 1618.4 362.2 1618.5C361.8 1618.8 401.4 1639.2 434.5 1655.8C469.1 1673.2 500.7 1685.1 533.5 1693.4C622.6 1715.8 708.5 1712.5 793 1683.5C849.7 1664 908.9 1628.4 951 1588.4L958.5 1581.2L974.6 1585C1028.1 1597.6 1077.8 1602.8 1133.5 1601.7C1164.1 1601.1 1176.7 1600.2 1202 1597C1389.6 1572.8 1552.3 1467.5 1647.9 1308.3C1718.7 1190.3 1748.1 1047.4 1728.9 914C1713.7 808.3 1667.1 707.4 1596.3 627C1582 610.8 1553.9 583.3 1538.1 570.1C1468.3 511.8 1386.7 472.5 1299 455.1C1197.5 434.8 1098.3 443.1 1006.5 479.4C990.7 485.7 957.4 502.1 943 510.7C905.1 533.4 879.3 553.6 846.9 585.9C805.6 627.2 775.2 669.1 749 721C713.1 792.2 694.1 862.7 687.5 948.7L686.9 956.9L690.2 957.4C692 957.7 705.2 958.4 719.5 959C733.8 959.6 748.3 960.3 751.7 960.6L757.8 961.2L758.4 956.9C758.6 954.5 759.6 944.4 760.5 934.5C765.7 876.4 782.8 815.3 808.9 761.5C819.9 738.9 827.3 726 841.5 704.5C883.4 641.6 939.5 591.3 1003.5 559.3C1131.3 495.4 1292.6 502.2 1423 576.9C1460.5 598.4 1490.7 621.7 1522 653C1560.8 691.7 1590.5 733.3 1614 781.5C1665.5 887.4 1676.9 1004.1 1647.4 1123.5C1597 1327.1 1436 1479.6 1228.5 1520.4C1139.4 1537.9 1052.4 1533.7 961.2 1507.4C948.9 1503.9 938.5 1501 937.9 1501C937.4 1501 927.9 1510.2 916.7 1521.4C905.6 1532.6 891.5 1545.7 885.5 1550.6C826.5 1598.2 760.5 1626.2 687.5 1634.6C669.3 1636.7 630.1 1637 612.5 1635.1C592.6 1633 551.5 1625.5 547.2 1623.1C546.4 1622.6 549.3 1620.3 555.2 1616.6C602.2 1587.5 645 1546.1 676.5 1499C696.9 1468.5 710.4 1441.6 725.3 1401.9L727.8 1395.2L710.7 1380.9C679.6 1355.1 641.9 1315.6 618.5 1284.5C531 1168.1 495.8 1030.6 517.1 889C520.1 869.2 524 851.2 533 816.8C537.4 800 541 785.5 541 784.8C541 783.6 536.1 783.9 513.8 786.3C489.9 788.9 482.6 789.3 455.5 789.4C421.4 789.4 409.4 788.2 383.5 782C296.6 761.2 228.2 700.1 189.2 608.5C167.8 558.1 154.9 492.4 156.2 439.8L156.5 427.2L166.5 434.6C208.3 465.6 254.8 485.2 306.4 493.5C324 496.3 335.4 497.5 365.5 499.5C410.4 502.6 428.8 506 448.5 514.9C459 519.7 490.6 539 499.4 546C515.3 558.8 528.3 579.1 537.3 605.5C539.7 612.6 548.4 644.8 556.5 677C564.7 709.2 571.6 735.8 572 736.3C572.3 736.7 582.4 710.8 594.4 678.8C623.2 601.9 631.7 583 650.1 555C671.3 522.9 687.2 506.2 735 465.9C763.1 442.4 774.1 434 807.5 410.5C836.1 390.4 844.3 384.3 857.5 372.9C886.8 347.7 903.8 320.9 910.7 288.7C913.4 276.2 913.2 246 910.2 232.4C905.7 211.5 896.1 188.5 883.4 167.9C880.3 163 877.3 159 876.7 159.1C876 159.2 862.7 168 847 178.7Z" fill="white"/>
<path d="M2094.5 860.1C2085.6 861 1867.4 898.3 1866.6 899.1C1866.2 899.5 1876.9 964.1 1877.5 964.8C1877.6 964.9 1904 960.5 1936.1 954.9C2000.3 943.7 2011.4 942.5 2024.7 945.4C2036.2 947.8 2044.5 952.3 2052.5 960.4C2060.4 968.3 2064.6 975.8 2067.9 988C2077.1 1021 2064.6 1044.3 2032.5 1054.3C2028.1 1055.6 1996.2 1061.6 1961.5 1067.5C1926.9 1073.5 1898.2 1078.6 1897.8 1078.9C1897.3 1079.4 1907.7 1143.7 1908.5 1144.7C1908.9 1145.4 2049 1120.6 2056.1 1118.5C2095.9 1107.1 2120.4 1083.9 2129.8 1049.1C2132.1 1040.5 2132.3 1037.6 2132.4 1021C2132.5 1001 2131.3 992.3 2126.3 976.6C2121.4 961 2112.2 945.4 2101.5 934.5C2097.8 930.7 2095.6 927.8 2096.2 927.4C2096.8 927 2103.1 926.5 2110.4 926.2C2121.6 925.8 2124.7 926 2132 927.9C2150.9 932.7 2163.1 945.1 2170 966.7C2174.2 979.7 2176 992.3 2176 1008.1C2176 1031.9 2171 1052.1 2161.1 1068.9C2159.3 1071.8 2158 1074.4 2158.2 1074.5C2158.9 1075.1 2214.3 1096.1 2214.5 1095.8C2216.3 1093.2 2221.5 1082.7 2223.9 1076.7C2241 1033.7 2238.2 966.7 2217.5 922.4C2211.5 909.6 2205.3 900.4 2196.3 891C2172.6 866.1 2138.8 855.9 2094.5 860.1Z" fill="white"/>
<path d="M1975.2 1240.4C1950.2 1245.2 1929.8 1256 1912 1274C1886.5 1299.6 1871.9 1336.7 1873.2 1371.9C1873.7 1384.3 1876 1395.9 1879.5 1404.4C1880.4 1406.5 1880.9 1408.4 1880.7 1408.6C1880.5 1408.8 1855.4 1401.4 1824.9 1392C1794.4 1382.7 1769.1 1375 1768.5 1375C1767.6 1375 1747.8 1438.1 1748.5 1438.8C1748.9 1439.2 2080.3 1540.8 2082.5 1541.2C2084.1 1541.5 2085.6 1537.5 2093.7 1511.1C2099.7 1491.7 2102.7 1480.4 2102.1 1480C2101.5 1479.7 2096.5 1478.1 2091 1476.5C2085.5 1474.8 2081 1473.3 2081 1473C2081 1472.7 2083.1 1471.2 2085.7 1469.5C2102.9 1458.6 2119.5 1435.6 2127.5 1411.6C2134.1 1391.7 2136.6 1367 2134 1347.8C2126.9 1295 2087.7 1255.7 2028.5 1241.9C2016.8 1239.2 1986.3 1238.3 1975.2 1240.4ZM2010.8 1308.1C2025.7 1310.4 2042.3 1318.5 2053 1328.7C2061.8 1336.9 2066.6 1344.2 2070.4 1355C2073.2 1362.7 2073.4 1364.6 2073.4 1375.5C2073.3 1386.1 2073 1388.6 2070.3 1396.8C2056.5 1438.5 2016.1 1455.7 1973.6 1438C1942.7 1425.1 1925.5 1397.4 1929.9 1367.3C1934.7 1334.1 1957.9 1310.2 1988.5 1307.1C1996.1 1306.4 2001.2 1306.6 2010.8 1308.1Z" fill="white"/>
<path d="M1650.3 1506.3C1635.9 1517.4 1624.1 1526.7 1624 1527C1624 1527.9 1789.9 1743.4 1795.5 1749.6C1806.4 1762 1823.2 1772.2 1837.7 1775.4C1841.7 1776.3 1848.7 1777 1853.3 1777C1880.6 1777 1913.3 1758 1931 1731.9C1935.2 1725.8 1935.2 1725.8 1933.2 1723.7C1932.2 1722.5 1923.7 1712.8 1914.5 1702.2L1897.7 1682.8L1894.6 1688.6C1890.4 1696.4 1881.7 1705.1 1874.4 1708.5C1863.4 1713.7 1853.7 1711.7 1844.4 1702.3C1841.7 1699.5 1803.1 1649.7 1758.5 1591.7C1714 1533.6 1677.3 1486.1 1677 1486.1C1676.7 1486.1 1664.7 1495.2 1650.3 1506.3Z" fill="white"/>
<path d="M1539.5 1670.6C1481.3 1679.6 1436.8 1720.1 1426.4 1773.7C1423.8 1786.7 1424.1 1810.4 1426.8 1823.6C1433 1852.9 1445.2 1876.3 1464 1895C1499.8 1930.7 1551.6 1940.2 1607.9 1921.4C1644.7 1909.1 1672 1887.3 1686.5 1858.6C1689.5 1852.6 1692 1847.2 1692 1846.6C1692 1846 1682.2 1839.6 1670.3 1832.5C1658.3 1825.4 1647.5 1819 1646.4 1818.3C1644.4 1817 1644 1817.4 1639.4 1825.7C1630.6 1841.4 1615 1855.4 1598 1862.5C1579.6 1870.2 1558.2 1873 1543.5 1869.6C1535.2 1867.6 1524.1 1862.3 1518.6 1857.6L1514.6 1854.3L1572.6 1821.3C1604.4 1803.2 1641.4 1782.1 1654.8 1774.6C1668.1 1767 1679 1760.3 1679 1759.6C1679 1759 1677.6 1754.9 1675.9 1750.5C1653.6 1692.3 1600.4 1661.2 1539.5 1670.6ZM1571 1727.2C1578.1 1728.9 1586.9 1733.3 1593.7 1738.4C1599.4 1742.7 1604.8 1748.6 1603.9 1749.4C1603.7 1749.6 1578.3 1764 1547.5 1781.4L1491.5 1813L1490.2 1808.7C1489.4 1806.4 1488.6 1799.7 1488.3 1793.9C1487.3 1774.3 1492.7 1759.1 1505.4 1746.4C1522.4 1729.5 1548.5 1721.8 1571 1727.2Z" fill="white"/>
<path d="M1306.2 1734C1290.6 1735 1277.6 1736.1 1277.2 1736.5C1276.8 1736.8 1278.5 1770.3 1280.8 1810.8C1284.4 1872.9 1285 1885.9 1284.1 1893.6C1281.5 1916.1 1273.8 1928.1 1258.1 1934.1C1249.5 1937.5 1231.5 1938 1222.3 1935.1C1206.2 1930.1 1197.1 1917.6 1192.5 1894C1191.7 1889.8 1189.2 1854.6 1186.8 1813.8L1182.5 1741.1L1179 1741.5C1177.1 1741.8 1162.2 1742.7 1146 1743.6C1129.8 1744.5 1116.3 1745.4 1116 1745.7C1115.8 1745.9 1117.5 1779.5 1119.8 1820.3C1124.2 1898.4 1124.3 1902.7 1120.4 1915.9C1114.3 1937.2 1096.2 1948.5 1071.1 1946.7C1060 1945.9 1052.7 1942.8 1045.9 1936.1C1039.4 1929.6 1035.8 1922.4 1033 1910.8C1030.2 1898.7 1029.5 1890.4 1025.4 1817.5C1023.3 1781.2 1021.5 1751.3 1021.4 1751.2C1021.1 1750.8 967.4 1753.7 959.5 1754.6L954.5 1755.1L958.6 1827.3C961 1867 963.5 1904.7 964.4 1911.1C968.4 1940.5 979.1 1963.2 996.8 1980.2C1013.9 1996.5 1035.8 2005 1065.1 2006.6C1091.8 2008.1 1117.7 2002.6 1136.4 1991.6C1143.3 1987.5 1155.7 1976.3 1159.8 1970.5L1161.9 1967.5L1167.7 1973.1C1178.2 1983.3 1191 1990.3 1206.2 1994.1C1218.1 1997.1 1243.5 1997.8 1258.8 1995.6C1316.2 1987.1 1348.5 1951.6 1351.7 1893.3C1352.1 1885.5 1351 1859.6 1347.9 1807.1L1343.5 1732L1339 1732.1C1336.5 1732.2 1321.8 1733.1 1306.2 1734Z" fill="white"/>
</svg>
