<svg version="1.1" id="Layer_1" xmlns="http://www.w3.org/2000/svg" xmlns:xlink="http://www.w3.org/1999/xlink" x="0px" y="0px"
	 width="100%" viewBox="0 0 4501 4500" enable-background="new 0 0 4501 4500" xml:space="preserve">
<path fill="#24A2F0" opacity="1.000000" stroke="none" 
	d="
M4508.000000,12.000000 
	C4508.000000,1509.061401 4508.000000,3006.122803 4508.000000,4504.000000 
	C3015.876465,4504.000000 1523.752808,4504.000000 29.735928,4502.126953 
	C27.827351,4496.254883 27.798374,4492.255859 27.798368,4488.257324 
	C27.796312,3005.036621 27.796156,1521.816040 27.797506,38.595421 
	C27.797510,33.929150 27.602163,29.249208 27.896551,24.600889 
	C28.136164,20.817465 28.973747,17.071913 29.731100,12.094030 
	C39.905102,11.977132 49.123951,11.778491 58.342796,11.778405 
	C1534.230591,11.764709 3010.118408,11.764950 4486.006348,11.774975 
	C4493.337402,11.775024 4500.668945,11.921764 4508.000000,12.000000 
M1214.879272,3004.892578 
	C1146.583130,3070.822021 1067.091553,3118.149658 977.107056,3148.072998 
	C936.647278,3161.527344 896.201233,3175.024170 855.805176,3188.667969 
	C851.169922,3190.233643 845.940857,3191.172852 840.773987,3195.919922 
	C846.700806,3199.423584 851.013428,3202.279785 855.586853,3204.627930 
	C890.561768,3222.584473 925.676941,3240.269287 960.580750,3258.362549 
	C1067.369141,3313.718262 1180.584595,3345.530273 1300.747437,3353.325684 
	C1372.468750,3357.978516 1443.300415,3352.649170 1513.396118,3337.731934 
	C1659.006470,3306.744385 1785.715942,3239.202637 1895.105835,3138.616455 
	C1898.995728,3135.039307 1902.928711,3131.509033 1907.366943,3127.480225 
	C1912.681396,3128.573242 1917.856201,3129.451660 1922.936646,3130.710449 
	C1992.987671,3148.067383 2064.041016,3159.273682 2136.077881,3163.014648 
	C2220.854492,3167.416992 2305.222900,3163.208252 2389.088623,3148.862305 
	C2549.848877,3121.363281 2697.901855,3062.498291 2832.319580,2970.108643 
	C3108.703369,2780.140381 3275.699951,2477.822266 3299.173828,2144.242188 
	C3307.671875,2023.479736 3294.687988,1904.687744 3259.937500,1788.450073 
	C3146.547607,1409.169922 2821.299805,1130.856934 2425.531494,1090.932495 
	C2340.118408,1082.316162 2255.189453,1084.471191 2170.587891,1099.215088 
	C1997.543701,1129.372070 1847.444946,1205.191650 1720.582153,1326.488892 
	C1615.716309,1426.754272 1539.702515,1546.205688 1488.025635,1681.448730 
	C1449.914551,1781.188477 1428.621826,1884.579712 1421.201172,1990.945923 
	C1420.891113,1995.389771 1421.667969,1999.909302 1421.976440,2005.021729 
	C1443.187500,2009.220703 1463.886719,2007.588013 1484.346924,2008.995850 
	C1504.729980,2010.398193 1525.135742,2013.331787 1546.354370,2010.656494 
	C1546.962280,2006.446899 1547.649170,2003.273193 1547.848511,2000.069214 
	C1550.460083,1958.106812 1555.821533,1916.496948 1564.058716,1875.275757 
	C1589.213745,1749.392090 1636.611328,1632.717651 1712.585693,1528.932251 
	C1865.226807,1320.415161 2071.504395,1215.087036 2329.967529,1212.439087 
	C2373.375977,1211.994263 2416.456787,1216.464966 2459.328369,1223.238159 
	C2564.577148,1239.866211 2663.040039,1275.323120 2754.633545,1329.676147 
	C3003.062500,1477.097656 3171.471436,1751.470215 3174.860840,2067.841553 
	C3175.685303,2144.801758 3165.806152,2220.695312 3148.338135,2295.670410 
	C3076.928711,2602.171875 2861.067139,2852.532227 2568.152832,2968.021240 
	C2461.152832,3010.208740 2350.201416,3033.447266 2235.151123,3037.110107 
	C2160.920410,3039.473145 2087.326904,3034.385254 2014.298096,3020.653809 
	C1972.327881,3012.762451 1931.091797,3002.150879 1890.285034,2989.665771 
	C1883.428467,2987.567871 1876.728149,2983.989014 1868.240112,2985.113770 
	C1859.855835,2993.893311 1851.157837,3003.052734 1842.404297,3012.158936 
	C1723.735474,3135.607910 1580.379883,3208.799561 1409.069336,3225.309326 
	C1331.250488,3232.809082 1254.707764,3225.253174 1179.049683,3206.666260 
	C1175.634521,3205.827393 1171.103394,3205.833496 1169.560059,3200.970703 
	C1198.007446,3180.278564 1226.854980,3160.178467 1254.710571,3138.786377 
	C1282.774780,3117.233887 1307.999023,3092.421875 1332.004150,3066.422119 
	C1356.013672,3040.417725 1377.891846,3012.716309 1397.855713,2983.493896 
	C1417.816284,2954.276123 1435.582275,2923.772705 1451.089844,2891.978760 
	C1466.524780,2860.333984 1479.633301,2827.740234 1491.647827,2793.856689 
	C1480.662964,2784.634521 1470.551636,2776.033936 1460.322144,2767.576416 
	C1402.540405,2719.803955 1350.762329,2666.200195 1304.839111,2606.975586 
	C1188.236816,2456.599365 1119.668701,2287.169434 1105.213013,2096.998535 
	C1098.100464,2003.429077 1104.755249,1910.457886 1126.091431,1818.884399 
	C1134.705322,1781.914307 1144.872681,1745.306641 1154.281860,1708.520752 
	C1155.225342,1704.832397 1157.022095,1700.986694 1152.907593,1696.558350 
	C1149.826294,1696.558350 1145.874756,1696.238647 1141.989990,1696.612915 
	C1124.081543,1698.338013 1106.164551,1700.027710 1088.300171,1702.147583 
	C1029.765381,1709.093384 971.371765,1709.877686 912.940796,1700.473877 
	C835.897339,1688.074585 765.419678,1660.149170 702.533447,1613.642090 
	C639.814697,1567.259155 591.160767,1508.656128 553.787903,1440.606323 
	C489.296722,1323.178345 464.244446,1196.303223 465.002014,1063.446899 
	C465.015076,1061.151733 466.369720,1058.864014 467.160736,1056.376587 
	C475.715454,1058.552124 480.736237,1064.188599 486.545410,1068.430298 
	C561.042419,1122.826172 643.374390,1158.406738 734.722534,1172.842163 
	C770.989075,1178.573364 807.510864,1181.200317 844.055054,1184.039673 
	C871.277527,1186.154907 898.519775,1188.566040 925.569458,1192.209351 
	C955.514771,1196.242554 983.987244,1205.622559 1010.268250,1220.852905 
	C1026.411987,1230.208374 1042.261230,1240.070923 1058.350220,1249.522583 
	C1095.928223,1271.597046 1122.131958,1303.459106 1139.526489,1343.057129 
	C1149.741089,1366.310425 1157.508423,1390.372314 1163.784668,1414.934448 
	C1178.462524,1472.377563 1193.029053,1529.849243 1207.704468,1587.293091 
	C1209.166016,1593.014404 1211.065918,1598.623657 1212.963501,1604.955688 
	C1219.802368,1599.095093 1220.700195,1591.472168 1223.202026,1584.861694 
	C1243.481323,1531.276245 1263.023071,1477.407715 1283.706177,1423.980225 
	C1294.276978,1396.674194 1305.725464,1369.608887 1318.520630,1343.282104 
	C1353.096680,1272.139526 1401.701538,1211.771973 1461.681152,1160.320068 
	C1518.876953,1111.256226 1576.801270,1063.209595 1639.369629,1020.947998 
	C1665.300659,1003.433167 1690.275024,984.422729 1714.958130,965.161682 
	C1739.740723,945.822754 1761.745361,923.512634 1780.189697,897.893188 
	C1819.677124,843.044556 1832.195435,781.896729 1821.856567,715.768616 
	C1814.206909,666.841614 1793.771973,622.916565 1767.040894,581.693726 
	C1765.369995,579.116821 1762.750000,577.155334 1761.063232,575.414734 
	C1758.401245,576.118958 1756.924561,576.142822 1755.897827,576.834534 
	C1724.945190,597.685974 1694.013306,618.568542 1663.176147,639.589844 
	C1661.159058,640.964844 1659.921021,643.482788 1658.165527,645.661743 
	C1662.143677,652.528625 1665.813965,658.829041 1669.451050,665.148560 
	C1679.457886,682.535522 1687.703735,700.638794 1693.168335,720.036987 
	C1706.018188,765.651672 1696.683716,805.841309 1663.707520,839.936401 
	C1652.618286,851.401794 1640.679199,862.199646 1628.186035,872.115051 
	C1610.971802,885.777283 1593.302612,898.966980 1575.059082,911.213196 
	C1509.626465,955.135681 1448.482666,1004.498230 1388.643921,1055.643799 
	C1329.449219,1106.238892 1277.212158,1162.741821 1236.526611,1229.458252 
	C1234.607544,1232.605347 1232.067871,1235.373901 1228.889771,1239.532593 
	C1224.172974,1233.664307 1220.336792,1229.206421 1216.845581,1224.493164 
	C1202.092773,1204.576416 1185.604980,1186.219849 1166.089600,1170.933105 
	C1126.046631,1139.567139 1082.678711,1113.399170 1036.329346,1092.602539 
	C989.521423,1071.599976 939.415710,1064.051147 888.701416,1060.000000 
	C854.158203,1057.240356 819.551208,1055.149902 785.070312,1051.766235 
	C718.454163,1045.228760 656.062622,1025.373047 598.564819,990.701904 
	C547.185730,959.720337 503.352600,920.180847 465.572052,873.772156 
	C440.742401,843.271851 416.159790,812.570129 391.267334,782.121582 
	C387.173553,777.113953 384.278564,770.627075 376.078888,767.974915 
	C374.743134,773.222534 373.101562,778.165588 372.254517,783.241272 
	C366.332458,818.726501 360.963776,854.308105 354.688904,889.729736 
	C338.079041,983.492371 334.056519,1077.694824 343.186188,1172.506348 
	C349.212769,1235.092407 361.428131,1296.396484 380.441772,1356.292236 
	C412.495392,1457.265503 461.047119,1549.238281 531.948975,1628.520508 
	C634.404480,1743.086182 762.238525,1809.645874 914.752747,1828.521606 
	C935.228943,1831.055786 955.914368,1831.872803 976.484924,1833.689697 
	C981.529053,1834.135254 986.501831,1835.387695 991.964600,1836.349854 
	C991.561646,1841.662598 991.579651,1845.635742 990.917725,1849.492310 
	C985.163757,1883.016602 981.488770,1916.757690 978.810486,1950.672485 
	C972.321594,2032.842407 976.051392,2114.587646 989.178101,2195.816162 
	C1011.346924,2332.997559 1059.288452,2460.761963 1131.725830,2579.349121 
	C1185.210205,2666.907715 1249.514160,2745.673096 1323.854980,2816.325684 
	C1329.025879,2821.239990 1335.560059,2825.179199 1338.450562,2833.305420 
	C1307.752808,2896.881104 1267.337769,2953.449951 1214.879272,3004.892578 
M2485.443848,3726.194580 
	C2474.260010,3753.287109 2452.534424,3765.324707 2424.709229,3768.005127 
	C2415.471680,3768.895020 2406.027100,3768.882324 2396.773682,3768.115967 
	C2372.430420,3766.100586 2353.915283,3754.270996 2342.195801,3732.786377 
	C2338.082520,3725.246338 2334.292480,3717.130859 2332.488525,3708.814941 
	C2328.969482,3692.592529 2325.606201,3676.130615 2324.547607,3659.615723 
	C2319.730957,3584.467285 2315.764893,3509.264648 2311.389160,3434.087158 
	C2311.089844,3428.948975 2309.937256,3423.860352 2308.872070,3416.654053 
	C2269.740967,3420.620361 2231.341797,3419.494629 2192.108154,3425.154053 
	C2192.108154,3432.737793 2191.820068,3439.290039 2192.158447,3445.809814 
	C2193.540039,3472.430420 2195.032959,3499.046143 2196.636230,3525.654297 
	C2198.520020,3556.917725 2200.980225,3588.152832 2202.409180,3619.435547 
	C2203.685547,3647.373779 2204.211182,3675.357666 2204.446045,3703.326904 
	C2204.558350,3716.763672 2200.995605,3729.726562 2195.772461,3742.114014 
	C2187.517090,3761.692871 2173.326660,3774.841553 2152.885010,3781.037842 
	C2133.338867,3786.962646 2113.493408,3787.815186 2093.622803,3783.406738 
	C2078.034424,3779.948242 2065.312744,3771.385986 2056.793701,3757.844971 
	C2051.875244,3750.027100 2047.190186,3741.544434 2044.889282,3732.712402 
	C2040.878296,3717.316650 2037.328735,3701.526855 2036.169312,3685.712891 
	C2032.563843,3636.535400 2030.227051,3587.265625 2027.286377,3538.038330 
	C2025.458496,3507.439209 2023.490845,3476.847656 2021.407837,3446.264893 
	C2021.155518,3442.561279 2019.792603,3438.933838 2018.792480,3434.614502 
	C2005.071533,3435.159668 1992.471558,3435.518555 1979.889038,3436.198975 
	C1966.581787,3436.918457 1953.260254,3437.629639 1940.002075,3438.927979 
	C1927.719727,3440.131104 1914.949463,3437.916504 1902.743042,3442.954590 
	C1902.743042,3447.727783 1902.549438,3451.690674 1902.771484,3455.629639 
	C1907.311646,3536.139404 1911.625000,3616.663818 1916.610718,3697.145996 
	C1918.640625,3729.915527 1925.295654,3761.832764 1939.408936,3791.819092 
	C1961.722900,3839.229736 1997.906494,3870.446289 2048.511963,3884.343750 
	C2090.524414,3895.880859 2132.936279,3895.153564 2175.190430,3885.978271 
	C2212.140137,3877.954834 2243.570801,3860.258545 2267.244141,3830.040527 
	C2269.139648,3827.621582 2271.729492,3825.746338 2273.631592,3823.960938 
	C2275.387451,3824.715820 2276.122070,3824.842773 2276.592041,3825.264893 
	C2279.564209,3827.934570 2282.494385,3830.651855 2285.407959,3833.385986 
	C2307.448242,3854.067627 2333.724854,3866.341797 2363.204590,3871.747070 
	C2406.018066,3879.597656 2448.230225,3875.876709 2489.613037,3863.129639 
	C2516.069824,3854.980469 2539.728516,3841.580811 2559.726807,3822.131592 
	C2590.712402,3791.996826 2605.896240,3754.374023 2612.116699,3712.389648 
	C2616.153320,3685.145752 2614.697266,3657.964844 2612.930664,3630.625244 
	C2608.246582,3558.138672 2604.379395,3485.599854 2600.105469,3413.086426 
	C2599.881836,3409.296631 2598.897949,3405.551514 2598.330811,3402.160889 
	C2581.527100,3400.169434 2497.487305,3405.322266 2481.810791,3409.116943 
	C2479.258789,3417.565918 2481.148682,3426.190674 2481.644287,3434.750000 
	C2483.647705,3469.344482 2485.821533,3503.928955 2487.904785,3538.518799 
	C2490.108154,3575.104004 2492.173340,3611.697510 2494.502197,3648.274414 
	C2496.124756,3673.753418 2494.984863,3698.891846 2485.443848,3726.194580 
M4090.674316,1855.130493 
	C4053.927002,1834.767700 4014.083008,1829.523071 3972.819336,1830.500122 
	C3943.358154,1831.197632 3914.550049,1836.588989 3885.672363,1841.540039 
	C3787.209229,1858.422119 3688.751953,1875.338623 3590.340576,1892.519287 
	C3574.097168,1895.354980 3557.523193,1896.930664 3540.954834,1902.277466 
	C3541.077637,1922.246948 3546.113037,1940.919434 3549.456299,1959.693726 
	C3552.902588,1979.044067 3553.788574,1999.104126 3561.502197,2018.127930 
	C3565.814209,2017.583252 3569.066162,2017.289917 3572.276855,2016.748779 
	C3601.173828,2011.877808 3630.058594,2006.936157 3658.956055,2002.068237 
	C3698.360596,1995.430176 3737.777344,1988.864258 3777.179932,1982.214966 
	C3794.576416,1979.279419 3811.830811,1980.730713 3828.757080,1984.816528 
	C3856.798828,1991.585205 3877.901367,2007.799194 3891.580078,2033.379272 
	C3899.540283,2048.265381 3903.811523,2064.299561 3906.111572,2080.901611 
	C3912.240479,2125.145752 3894.079346,2158.598389 3853.026123,2175.268799 
	C3839.561035,2180.736328 3825.169189,2184.573730 3810.840332,2187.147461 
	C3753.812744,2197.392090 3696.599609,2206.601318 3639.555908,2216.759033 
	C3625.370605,2219.285156 3610.608398,2219.863525 3596.559570,2225.770020 
	C3596.559570,2229.080566 3596.181396,2231.731689 3596.616699,2234.241699 
	C3602.418457,2267.701416 3608.304199,2301.146729 3614.303955,2334.571289 
	C3614.624512,2336.357178 3616.140869,2337.928467 3617.369385,2340.067627 
	C3624.698486,2341.385254 3631.805664,2339.426758 3638.937988,2338.208008 
	C3667.166748,2333.383789 3695.395508,2328.556396 3723.610107,2323.649414 
	C3768.228516,2315.889160 3812.894531,2308.384277 3857.427490,2300.159180 
	C3889.849609,2294.171143 3920.300781,2282.737549 3947.493652,2263.652588 
	C3981.099609,2240.066406 4002.490479,2208.152588 4012.202148,2168.283203 
	C4018.766846,2141.332764 4018.796143,2114.044678 4015.601562,2086.813232 
	C4010.096436,2039.890503 3993.224609,1997.897217 3959.407471,1963.754639 
	C3956.759521,1961.081055 3954.545410,1957.977295 3951.830078,1954.713623 
	C3967.855225,1948.471191 3983.129150,1947.133423 4001.490234,1949.270630 
	C4040.218750,1953.778931 4066.486084,1974.271851 4081.144531,2010.240967 
	C4087.734375,2026.411011 4091.916748,2043.203735 4094.105957,2060.401611 
	C4100.478027,2110.457275 4095.488770,2158.795166 4070.960938,2203.937012 
	C4069.151855,2207.265869 4067.766113,2210.824463 4066.258545,2214.112549 
	C4080.788330,2223.507812 4147.145508,2248.992920 4164.103027,2251.759766 
	C4166.083496,2248.868652 4168.595703,2245.819336 4170.440918,2242.408936 
	C4183.571777,2218.143066 4191.610840,2192.147461 4196.134277,2165.024414 
	C4203.775391,2119.206055 4202.656250,2073.381836 4194.919922,2027.753174 
	C4189.784180,1997.461182 4181.494141,1967.988770 4168.035156,1940.160767 
	C4151.089355,1905.124268 4127.288574,1876.258423 4090.674316,1855.130493 
M3552.628174,2723.371338 
	C3552.398682,2731.364014 3551.888916,2739.361572 3552.022217,2747.348145 
	C3552.144531,2754.661377 3552.526367,2762.027100 3553.590576,2769.252197 
	C3554.752686,2777.140137 3557.076416,2784.850342 3558.436523,2792.717041 
	C3559.737305,2800.242676 3564.906494,2807.046875 3563.945312,2815.733154 
	C3554.414062,2816.989014 3547.160156,2812.968018 3539.777100,2810.740234 
	C3486.844238,2794.769043 3434.032959,2778.395508 3381.163086,2762.215088 
	C3375.555908,2760.499023 3370.030273,2757.583008 3363.927002,2759.784668 
	C3355.658936,2777.115723 3332.280029,2854.566406 3330.661377,2869.897217 
	C3331.696289,2870.684814 3332.615723,2871.847656 3333.782227,2872.206543 
	C3522.873779,2930.391602 3711.981201,2988.525391 3901.098389,3046.627197 
	C3909.369141,3049.168457 3917.732422,3051.411377 3926.065918,3053.744385 
	C3926.671143,3053.913818 3927.411377,3053.773682 3928.046875,3053.612793 
	C3928.656982,3053.458740 3929.212891,3053.090576 3929.792480,3052.816406 
	C3938.851318,3033.276611 3960.688232,2960.067871 3961.502686,2945.597168 
	C3956.183594,2943.824951 3950.549805,2942.019531 3944.967041,2940.068359 
	C3939.025879,2937.991699 3932.200928,2937.643311 3926.574463,2931.754395 
	C3930.499756,2928.480957 3933.313477,2925.821045 3936.430908,2923.584229 
	C3965.379150,2902.818359 3985.875488,2875.412598 4000.129395,2843.025635 
	C4014.282715,2810.867676 4021.828369,2777.124756 4022.102783,2742.122803 
	C4022.579590,2681.336426 4002.275391,2628.500488 3958.838379,2585.265381 
	C3927.860352,2554.431885 3890.466309,2534.843994 3848.740234,2522.861572 
	C3807.645020,2511.060547 3766.153076,2507.834473 3724.307373,2517.848633 
	C3661.717529,2532.827148 3615.832275,2569.995117 3584.306885,2625.459717 
	C3567.651367,2654.762939 3557.618164,2686.387939 3552.628174,2723.371338 
M3176.660400,3678.656494 
	C3198.430664,3657.511963 3215.149902,3633.225830 3224.520752,3604.597412 
	C3210.055664,3592.832031 3157.100098,3561.308350 3140.583496,3554.565674 
	C3137.877686,3558.734619 3134.822998,3562.953125 3132.272949,3567.457764 
	C3123.325439,3583.262207 3112.608398,3597.715088 3098.326172,3609.000244 
	C3060.638672,3638.778564 3017.874268,3652.647217 2969.759766,3648.015381 
	C2949.406738,3646.055908 2931.129883,3638.217529 2915.096924,3625.466797 
	C2912.657959,3623.527344 2910.850830,3620.793701 2907.888916,3617.455078 
	C2915.726318,3612.828125 2922.502441,3608.703369 2929.393066,3604.778564 
	C3013.894043,3556.649414 3098.427246,3508.577148 3182.892578,3460.385010 
	C3189.109863,3456.837891 3196.321533,3454.498047 3201.043457,3447.555664 
	C3200.143555,3443.856445 3199.582520,3439.901855 3198.226562,3436.241699 
	C3188.197754,3409.171875 3174.674316,3384.025635 3155.920898,3361.950195 
	C3118.861084,3318.324463 3072.013184,3292.673584 3014.869873,3287.237305 
	C2945.268066,3280.615723 2882.851807,3299.868164 2828.297607,3343.072510 
	C2784.198975,3377.996582 2757.002930,3423.969727 2748.656494,3479.646484 
	C2738.393066,3548.112061 2755.066162,3610.748047 2795.678711,3666.528320 
	C2826.637939,3709.050293 2868.488770,3736.105713 2919.688477,3748.553955 
	C2951.838623,3756.370605 2984.223877,3757.515625 3016.867920,3752.265625 
	C3075.979980,3742.759033 3129.735840,3721.469482 3176.660400,3678.656494 
M3224.624023,3189.459473 
	C3268.105957,3245.987793 3311.588135,3302.515869 3355.069092,3359.045166 
	C3369.697998,3378.064209 3384.238525,3397.152100 3398.974365,3416.087646 
	C3412.587646,3433.580566 3428.255859,3448.931152 3447.399170,3460.363770 
	C3476.020020,3477.457031 3506.638672,3484.094238 3539.510498,3476.430908 
	C3587.084961,3465.340088 3623.947021,3438.284424 3652.476318,3399.247070 
	C3655.119873,3395.630371 3656.779785,3391.294678 3659.224854,3386.672119 
	C3638.579590,3363.141113 3618.412842,3340.098877 3598.109131,3317.177734 
	C3597.081055,3316.016357 3594.875732,3315.897705 3592.890381,3315.174072 
	C3589.807129,3320.157959 3587.151611,3324.746582 3584.210938,3329.144287 
	C3577.063477,3339.832520 3568.019287,3348.584229 3556.834717,3354.998291 
	C3536.733398,3366.525391 3518.903564,3365.150391 3501.632812,3349.919434 
	C3495.192139,3344.239014 3489.572266,3337.481934 3484.280518,3330.669922 
	C3458.929688,3298.035889 3433.813477,3265.219727 3408.625244,3232.459473 
	C3342.404785,3146.332275 3276.208740,3060.185791 3209.927002,2974.105469 
	C3205.997314,2969.001953 3203.059326,2962.728271 3196.765869,2960.166016 
	C3179.030518,2970.815918 3115.465332,3020.041504 3105.100098,3031.054443 
	C3105.459229,3032.310547 3105.486084,3033.820801 3106.224854,3034.786377 
	C3145.088867,3085.610596 3184.012939,3136.389160 3224.624023,3189.459473 
z"/>
<path fill="#F5FBFE" opacity="1.000000" stroke="none" 
	d="
M4508.000000,10.000000 
	C4500.668945,11.921764 4493.337402,11.775024 4486.006348,11.774975 
	C3010.118408,11.764950 1534.230591,11.764709 58.342796,11.778405 
	C49.123951,11.778491 39.905102,11.977132 29.731100,12.094030 
	C28.973747,17.071913 28.136164,20.817465 27.896551,24.600889 
	C27.602163,29.249208 27.797510,33.929150 27.797506,38.595421 
	C27.796156,1521.816040 27.796312,3005.036621 27.798368,4488.257324 
	C27.798374,4492.255859 27.827351,4496.254883 27.921398,4502.126953 
	C20.001768,4504.000000 12.003535,4504.000000 4.003977,4504.000000 
	C4.002651,3004.333252 4.002651,1504.666382 4.002651,4.499799 
	C1505.333130,4.499799 3006.666504,4.499799 4508.000000,4.499799 
	C4508.000000,5.336521 4508.000000,6.668260 4508.000000,10.000000 
z"/>
<path fill="#FDF7E5" opacity="1.000000" stroke="none" 
	d="
M1215.883667,3003.896240 
	C1267.337769,2953.449951 1307.752808,2896.881104 1338.450562,2833.305420 
	C1335.560059,2825.179199 1329.025879,2821.239990 1323.854980,2816.325684 
	C1249.514160,2745.673096 1185.210205,2666.907715 1131.725830,2579.349121 
	C1059.288452,2460.761963 1011.346924,2332.997559 989.178101,2195.816162 
	C976.051392,2114.587646 972.321594,2032.842407 978.810486,1950.672485 
	C981.488770,1916.757690 985.163757,1883.016602 990.917725,1849.492310 
	C991.579651,1845.635742 991.561646,1841.662598 991.964600,1836.349854 
	C986.501831,1835.387695 981.529053,1834.135254 976.484924,1833.689697 
	C955.914368,1831.872803 935.228943,1831.055786 914.752747,1828.521606 
	C762.238525,1809.645874 634.404480,1743.086182 531.948975,1628.520508 
	C461.047119,1549.238281 412.495392,1457.265503 380.441772,1356.292236 
	C361.428131,1296.396484 349.212769,1235.092407 343.186188,1172.506348 
	C334.056519,1077.694824 338.079041,983.492371 354.688904,889.729736 
	C360.963776,854.308105 366.332458,818.726501 372.254517,783.241272 
	C373.101562,778.165588 374.743134,773.222534 376.078888,767.974915 
	C384.278564,770.627075 387.173553,777.113953 391.267334,782.121582 
	C416.159790,812.570129 440.742401,843.271851 465.572052,873.772156 
	C503.352600,920.180847 547.185730,959.720337 598.564819,990.701904 
	C656.062622,1025.373047 718.454163,1045.228760 785.070312,1051.766235 
	C819.551208,1055.149902 854.158203,1057.240356 888.701416,1060.000000 
	C939.415710,1064.051147 989.521423,1071.599976 1036.329346,1092.602539 
	C1082.678711,1113.399170 1126.046631,1139.567139 1166.089600,1170.933105 
	C1185.604980,1186.219849 1202.092773,1204.576416 1216.845581,1224.493164 
	C1220.336792,1229.206421 1224.172974,1233.664307 1228.889771,1239.532593 
	C1232.067871,1235.373901 1234.607544,1232.605347 1236.526611,1229.458252 
	C1277.212158,1162.741821 1329.449219,1106.238892 1388.643921,1055.643799 
	C1448.482666,1004.498230 1509.626465,955.135681 1575.059082,911.213196 
	C1593.302612,898.966980 1610.971802,885.777283 1628.186035,872.115051 
	C1640.679199,862.199646 1652.618286,851.401794 1663.707520,839.936401 
	C1696.683716,805.841309 1706.018188,765.651672 1693.168335,720.036987 
	C1687.703735,700.638794 1679.457886,682.535522 1669.451050,665.148560 
	C1665.813965,658.829041 1662.143677,652.528625 1658.165527,645.661743 
	C1659.921021,643.482788 1661.159058,640.964844 1663.176147,639.589844 
	C1694.013306,618.568542 1724.945190,597.685974 1755.897827,576.834534 
	C1756.924561,576.142822 1758.401245,576.118958 1761.063232,575.414734 
	C1762.750000,577.155334 1765.369995,579.116821 1767.040894,581.693726 
	C1793.771973,622.916565 1814.206909,666.841614 1821.856567,715.768616 
	C1832.195435,781.896729 1819.677124,843.044556 1780.189697,897.893188 
	C1761.745361,923.512634 1739.740723,945.822754 1714.958130,965.161682 
	C1690.275024,984.422729 1665.300659,1003.433167 1639.369629,1020.947998 
	C1576.801270,1063.209595 1518.876953,1111.256226 1461.681152,1160.320068 
	C1401.701538,1211.771973 1353.096680,1272.139526 1318.520630,1343.282104 
	C1305.725464,1369.608887 1294.276978,1396.674194 1283.706177,1423.980225 
	C1263.023071,1477.407715 1243.481323,1531.276245 1223.202026,1584.861694 
	C1220.700195,1591.472168 1219.802368,1599.095093 1212.963501,1604.955688 
	C1211.065918,1598.623657 1209.166016,1593.014404 1207.704468,1587.293091 
	C1193.029053,1529.849243 1178.462524,1472.377563 1163.784668,1414.934448 
	C1157.508423,1390.372314 1149.741089,1366.310425 1139.526489,1343.057129 
	C1122.131958,1303.459106 1095.928223,1271.597046 1058.350220,1249.522583 
	C1042.261230,1240.070923 1026.411987,1230.208374 1010.268250,1220.852905 
	C983.987244,1205.622559 955.514771,1196.242554 925.569458,1192.209351 
	C898.519775,1188.566040 871.277527,1186.154907 844.055054,1184.039673 
	C807.510864,1181.200317 770.989075,1178.573364 734.722534,1172.842163 
	C643.374390,1158.406738 561.042419,1122.826172 486.545410,1068.430298 
	C480.736237,1064.188599 475.715454,1058.552124 467.160736,1056.376587 
	C466.369720,1058.864014 465.015076,1061.151733 465.002014,1063.446899 
	C464.244446,1196.303223 489.296722,1323.178345 553.787903,1440.606323 
	C591.160767,1508.656128 639.814697,1567.259155 702.533447,1613.642090 
	C765.419678,1660.149170 835.897339,1688.074585 912.940796,1700.473877 
	C971.371765,1709.877686 1029.765381,1709.093384 1088.300171,1702.147583 
	C1106.164551,1700.027710 1124.081543,1698.338013 1141.989990,1696.612915 
	C1145.874756,1696.238647 1149.826294,1696.558350 1152.907593,1696.558350 
	C1157.022095,1700.986694 1155.225342,1704.832397 1154.281860,1708.520752 
	C1144.872681,1745.306641 1134.705322,1781.914307 1126.091431,1818.884399 
	C1104.755249,1910.457886 1098.100464,2003.429077 1105.213013,2096.998535 
	C1119.668701,2287.169434 1188.236816,2456.599365 1304.839111,2606.975586 
	C1350.762329,2666.200195 1402.540405,2719.803955 1460.322144,2767.576416 
	C1470.551636,2776.033936 1480.662964,2784.634521 1491.647827,2793.856689 
	C1479.633301,2827.740234 1466.524780,2860.333984 1451.089844,2891.978760 
	C1435.582275,2923.772705 1417.816284,2954.276123 1397.855713,2983.493896 
	C1377.891846,3012.716309 1356.013672,3040.417725 1332.004150,3066.422119 
	C1307.999023,3092.421875 1282.774780,3117.233887 1254.710571,3138.786377 
	C1226.854980,3160.178467 1198.007446,3180.278564 1169.560059,3200.970703 
	C1171.103394,3205.833496 1175.634521,3205.827393 1179.049683,3206.666260 
	C1254.707764,3225.253174 1331.250488,3232.809082 1409.069336,3225.309326 
	C1580.379883,3208.799561 1723.735474,3135.607910 1842.404297,3012.158936 
	C1851.157837,3003.052734 1859.855835,2993.893311 1868.240112,2985.113770 
	C1876.728149,2983.989014 1883.428467,2987.567871 1890.285034,2989.665771 
	C1931.091797,3002.150879 1972.327881,3012.762451 2014.298096,3020.653809 
	C2087.326904,3034.385254 2160.920410,3039.473145 2235.151123,3037.110107 
	C2350.201416,3033.447266 2461.152832,3010.208740 2568.152832,2968.021240 
	C2861.067139,2852.532227 3076.928711,2602.171875 3148.338135,2295.670410 
	C3165.806152,2220.695312 3175.685303,2144.801758 3174.860840,2067.841553 
	C3171.471436,1751.470215 3003.062500,1477.097656 2754.633545,1329.676147 
	C2663.040039,1275.323120 2564.577148,1239.866211 2459.328369,1223.238159 
	C2416.456787,1216.464966 2373.375977,1211.994263 2329.967529,1212.439087 
	C2071.504395,1215.087036 1865.226807,1320.415161 1712.585693,1528.932251 
	C1636.611328,1632.717651 1589.213745,1749.392090 1564.058716,1875.275757 
	C1555.821533,1916.496948 1550.460083,1958.106812 1547.848511,2000.069214 
	C1547.649170,2003.273193 1546.962280,2006.446899 1546.354370,2010.656494 
	C1525.135742,2013.331787 1504.729980,2010.398193 1484.346924,2008.995850 
	C1463.886719,2007.588013 1443.187500,2009.220703 1421.976440,2005.021729 
	C1421.667969,1999.909302 1420.891113,1995.389771 1421.201172,1990.945923 
	C1428.621826,1884.579712 1449.914551,1781.188477 1488.025635,1681.448730 
	C1539.702515,1546.205688 1615.716309,1426.754272 1720.582153,1326.488892 
	C1847.444946,1205.191650 1997.543701,1129.372070 2170.587891,1099.215088 
	C2255.189453,1084.471191 2340.118408,1082.316162 2425.531494,1090.932495 
	C2821.299805,1130.856934 3146.547607,1409.169922 3259.937500,1788.450073 
	C3294.687988,1904.687744 3307.671875,2023.479736 3299.173828,2144.242188 
	C3275.699951,2477.822266 3108.703369,2780.140381 2832.319580,2970.108643 
	C2697.901855,3062.498291 2549.848877,3121.363281 2389.088623,3148.862305 
	C2305.222900,3163.208252 2220.854492,3167.416992 2136.077881,3163.014648 
	C2064.041016,3159.273682 1992.987671,3148.067383 1922.936646,3130.710449 
	C1917.856201,3129.451660 1912.681396,3128.573242 1907.366943,3127.480225 
	C1902.928711,3131.509033 1898.995728,3135.039307 1895.105835,3138.616455 
	C1785.715942,3239.202637 1659.006470,3306.744385 1513.396118,3337.731934 
	C1443.300415,3352.649170 1372.468750,3357.978516 1300.747437,3353.325684 
	C1180.584595,3345.530273 1067.369141,3313.718262 960.580750,3258.362549 
	C925.676941,3240.269287 890.561768,3222.584473 855.586853,3204.627930 
	C851.013428,3202.279785 846.700806,3199.423584 840.773987,3195.919922 
	C845.940857,3191.172852 851.169922,3190.233643 855.805176,3188.667969 
	C896.201233,3175.024170 936.647278,3161.527344 977.107056,3148.072998 
	C1067.091553,3118.149658 1146.583130,3070.822021 1215.883667,3003.896240 
z"/>
<path fill="#FCF7E5" opacity="1.000000" stroke="none" 
	d="
M2486.105957,3724.762207 
	C2494.984863,3698.891846 2496.124756,3673.753418 2494.502197,3648.274414 
	C2492.173340,3611.697510 2490.108154,3575.104004 2487.904785,3538.518799 
	C2485.821533,3503.928955 2483.647705,3469.344482 2481.644287,3434.750000 
	C2481.148682,3426.190674 2479.258789,3417.565918 2481.810791,3409.116943 
	C2497.487305,3405.322266 2581.527100,3400.169434 2598.330811,3402.160889 
	C2598.897949,3405.551514 2599.881836,3409.296631 2600.105469,3413.086426 
	C2604.379395,3485.599854 2608.246582,3558.138672 2612.930664,3630.625244 
	C2614.697266,3657.964844 2616.153320,3685.145752 2612.116699,3712.389648 
	C2605.896240,3754.374023 2590.712402,3791.996826 2559.726807,3822.131592 
	C2539.728516,3841.580811 2516.069824,3854.980469 2489.613037,3863.129639 
	C2448.230225,3875.876709 2406.018066,3879.597656 2363.204590,3871.747070 
	C2333.724854,3866.341797 2307.448242,3854.067627 2285.407959,3833.385986 
	C2282.494385,3830.651855 2279.564209,3827.934570 2276.592041,3825.264893 
	C2276.122070,3824.842773 2275.387451,3824.715820 2273.631592,3823.960938 
	C2271.729492,3825.746338 2269.139648,3827.621582 2267.244141,3830.040527 
	C2243.570801,3860.258545 2212.140137,3877.954834 2175.190430,3885.978271 
	C2132.936279,3895.153564 2090.524414,3895.880859 2048.511963,3884.343750 
	C1997.906494,3870.446289 1961.722900,3839.229736 1939.408936,3791.819092 
	C1925.295654,3761.832764 1918.640625,3729.915527 1916.610718,3697.145996 
	C1911.625000,3616.663818 1907.311646,3536.139404 1902.771484,3455.629639 
	C1902.549438,3451.690674 1902.743042,3447.727783 1902.743042,3442.954590 
	C1914.949463,3437.916504 1927.719727,3440.131104 1940.002075,3438.927979 
	C1953.260254,3437.629639 1966.581787,3436.918457 1979.889038,3436.198975 
	C1992.471558,3435.518555 2005.071533,3435.159668 2018.792480,3434.614502 
	C2019.792603,3438.933838 2021.155518,3442.561279 2021.407837,3446.264893 
	C2023.490845,3476.847656 2025.458496,3507.439209 2027.286377,3538.038330 
	C2030.227051,3587.265625 2032.563843,3636.535400 2036.169312,3685.712891 
	C2037.328735,3701.526855 2040.878296,3717.316650 2044.889282,3732.712402 
	C2047.190186,3741.544434 2051.875244,3750.027100 2056.793701,3757.844971 
	C2065.312744,3771.385986 2078.034424,3779.948242 2093.622803,3783.406738 
	C2113.493408,3787.815186 2133.338867,3786.962646 2152.885010,3781.037842 
	C2173.326660,3774.841553 2187.517090,3761.692871 2195.772461,3742.114014 
	C2200.995605,3729.726562 2204.558350,3716.763672 2204.446045,3703.326904 
	C2204.211182,3675.357666 2203.685547,3647.373779 2202.409180,3619.435547 
	C2200.980225,3588.152832 2198.520020,3556.917725 2196.636230,3525.654297 
	C2195.032959,3499.046143 2193.540039,3472.430420 2192.158447,3445.809814 
	C2191.820068,3439.290039 2192.108154,3432.737793 2192.108154,3425.154053 
	C2231.341797,3419.494629 2269.740967,3420.620361 2308.872070,3416.654053 
	C2309.937256,3423.860352 2311.089844,3428.948975 2311.389160,3434.087158 
	C2315.764893,3509.264648 2319.730957,3584.467285 2324.547607,3659.615723 
	C2325.606201,3676.130615 2328.969482,3692.592529 2332.488525,3708.814941 
	C2334.292480,3717.130859 2338.082520,3725.246338 2342.195801,3732.786377 
	C2353.915283,3754.270996 2372.430420,3766.100586 2396.773682,3768.115967 
	C2406.027100,3768.882324 2415.471680,3768.895020 2424.709229,3768.005127 
	C2452.534424,3765.324707 2474.260010,3753.287109 2486.105957,3724.762207 
z"/>
<path fill="#FDF7E5" opacity="1.000000" stroke="none" 
	d="
M4091.974121,1855.813477 
	C4127.288574,1876.258423 4151.089355,1905.124268 4168.035156,1940.160767 
	C4181.494141,1967.988770 4189.784180,1997.461182 4194.919922,2027.753174 
	C4202.656250,2073.381836 4203.775391,2119.206055 4196.134277,2165.024414 
	C4191.610840,2192.147461 4183.571777,2218.143066 4170.440918,2242.408936 
	C4168.595703,2245.819336 4166.083496,2248.868652 4164.103027,2251.759766 
	C4147.145508,2248.992920 4080.788330,2223.507812 4066.258545,2214.112549 
	C4067.766113,2210.824463 4069.151855,2207.265869 4070.960938,2203.937012 
	C4095.488770,2158.795166 4100.478027,2110.457275 4094.105957,2060.401611 
	C4091.916748,2043.203735 4087.734375,2026.411011 4081.144531,2010.240967 
	C4066.486084,1974.271851 4040.218750,1953.778931 4001.490234,1949.270630 
	C3983.129150,1947.133423 3967.855225,1948.471191 3951.830078,1954.713623 
	C3954.545410,1957.977295 3956.759521,1961.081055 3959.407471,1963.754639 
	C3993.224609,1997.897217 4010.096436,2039.890503 4015.601562,2086.813232 
	C4018.796143,2114.044678 4018.766846,2141.332764 4012.202148,2168.283203 
	C4002.490479,2208.152588 3981.099609,2240.066406 3947.493652,2263.652588 
	C3920.300781,2282.737549 3889.849609,2294.171143 3857.427490,2300.159180 
	C3812.894531,2308.384277 3768.228516,2315.889160 3723.610107,2323.649414 
	C3695.395508,2328.556396 3667.166748,2333.383789 3638.937988,2338.208008 
	C3631.805664,2339.426758 3624.698486,2341.385254 3617.369385,2340.067627 
	C3616.140869,2337.928467 3614.624512,2336.357178 3614.303955,2334.571289 
	C3608.304199,2301.146729 3602.418457,2267.701416 3596.616699,2234.241699 
	C3596.181396,2231.731689 3596.559570,2229.080566 3596.559570,2225.770020 
	C3610.608398,2219.863525 3625.370605,2219.285156 3639.555908,2216.759033 
	C3696.599609,2206.601318 3753.812744,2197.392090 3810.840332,2187.147461 
	C3825.169189,2184.573730 3839.561035,2180.736328 3853.026123,2175.268799 
	C3894.079346,2158.598389 3912.240479,2125.145752 3906.111572,2080.901611 
	C3903.811523,2064.299561 3899.540283,2048.265381 3891.580078,2033.379272 
	C3877.901367,2007.799194 3856.798828,1991.585205 3828.757080,1984.816528 
	C3811.830811,1980.730713 3794.576416,1979.279419 3777.179932,1982.214966 
	C3737.777344,1988.864258 3698.360596,1995.430176 3658.956055,2002.068237 
	C3630.058594,2006.936157 3601.173828,2011.877808 3572.276855,2016.748779 
	C3569.066162,2017.289917 3565.814209,2017.583252 3561.502197,2018.127930 
	C3553.788574,1999.104126 3552.902588,1979.044067 3549.456299,1959.693726 
	C3546.113037,1940.919434 3541.077637,1922.246948 3540.954834,1902.277466 
	C3557.523193,1896.930664 3574.097168,1895.354980 3590.340576,1892.519287 
	C3688.751953,1875.338623 3787.209229,1858.422119 3885.672363,1841.540039 
	C3914.550049,1836.588989 3943.358154,1831.197632 3972.819336,1830.500122 
	C4014.083008,1829.523071 4053.927002,1834.767700 4091.974121,1855.813477 
z"/>
<path fill="#FDF7E5" opacity="1.000000" stroke="none" 
	d="
M3552.804199,2721.558105 
	C3557.618164,2686.387939 3567.651367,2654.762939 3584.306885,2625.459717 
	C3615.832275,2569.995117 3661.717529,2532.827148 3724.307373,2517.848633 
	C3766.153076,2507.834473 3807.645020,2511.060547 3848.740234,2522.861572 
	C3890.466309,2534.843994 3927.860352,2554.431885 3958.838379,2585.265381 
	C4002.275391,2628.500488 4022.579590,2681.336426 4022.102783,2742.122803 
	C4021.828369,2777.124756 4014.282715,2810.867676 4000.129395,2843.025635 
	C3985.875488,2875.412598 3965.379150,2902.818359 3936.430908,2923.584229 
	C3933.313477,2925.821045 3930.499756,2928.480957 3926.574463,2931.754395 
	C3932.200928,2937.643311 3939.025879,2937.991699 3944.967041,2940.068359 
	C3950.549805,2942.019531 3956.183594,2943.824951 3961.502686,2945.597168 
	C3960.688232,2960.067871 3938.851318,3033.276611 3929.792480,3052.816406 
	C3929.212891,3053.090576 3928.656982,3053.458740 3928.046875,3053.612793 
	C3927.411377,3053.773682 3926.671143,3053.913818 3926.065918,3053.744385 
	C3917.732422,3051.411377 3909.369141,3049.168457 3901.098389,3046.627197 
	C3711.981201,2988.525391 3522.873779,2930.391602 3333.782227,2872.206543 
	C3332.615723,2871.847656 3331.696289,2870.684814 3330.662354,2869.895996 
	C3332.280029,2854.566406 3355.658936,2777.115723 3363.927002,2759.784668 
	C3370.030273,2757.583008 3375.555908,2760.499023 3381.163086,2762.215088 
	C3434.032959,2778.395508 3486.844238,2794.769043 3539.777100,2810.740234 
	C3547.160156,2812.968018 3554.414062,2816.989014 3563.945312,2815.733154 
	C3564.906494,2807.046875 3559.737305,2800.242676 3558.436523,2792.717041 
	C3557.076416,2784.850342 3554.752686,2777.140137 3553.590576,2769.252197 
	C3552.526367,2762.027100 3552.144531,2754.661377 3552.022217,2747.348145 
	C3551.888916,2739.361572 3552.398682,2731.364014 3552.804199,2721.558105 
M3848.718994,2652.849609 
	C3829.136963,2642.323975 3808.211670,2635.978760 3786.179199,2633.595703 
	C3746.554443,2629.309570 3697.782715,2643.045410 3669.983887,2691.609375 
	C3662.661865,2704.401123 3657.739990,2718.084229 3654.678955,2732.534180 
	C3644.487061,2780.645996 3662.489258,2826.869141 3702.816406,2854.873047 
	C3728.656738,2872.817139 3757.657471,2882.173828 3788.884277,2882.883545 
	C3822.937988,2883.657227 3852.969482,2872.489990 3876.995361,2847.557129 
	C3921.945557,2800.910645 3934.798828,2707.125244 3856.429932,2657.383545 
	C3854.746094,2656.314941 3852.991699,2655.356934 3848.718994,2652.849609 
z"/>
<path fill="#FCF7E5" opacity="1.000000" stroke="none" 
	d="
M3175.639648,3679.645020 
	C3129.735840,3721.469482 3075.979980,3742.759033 3016.867920,3752.265625 
	C2984.223877,3757.515625 2951.838623,3756.370605 2919.688477,3748.553955 
	C2868.488770,3736.105713 2826.637939,3709.050293 2795.678711,3666.528320 
	C2755.066162,3610.748047 2738.393066,3548.112061 2748.656494,3479.646484 
	C2757.002930,3423.969727 2784.198975,3377.996582 2828.297607,3343.072510 
	C2882.851807,3299.868164 2945.268066,3280.615723 3014.869873,3287.237305 
	C3072.013184,3292.673584 3118.861084,3318.324463 3155.920898,3361.950195 
	C3174.674316,3384.025635 3188.197754,3409.171875 3198.226562,3436.241699 
	C3199.582520,3439.901855 3200.143555,3443.856445 3201.043457,3447.555664 
	C3196.321533,3454.498047 3189.109863,3456.837891 3182.892578,3460.385010 
	C3098.427246,3508.577148 3013.894043,3556.649414 2929.393066,3604.778564 
	C2922.502441,3608.703369 2915.726318,3612.828125 2907.888916,3617.455078 
	C2910.850830,3620.793701 2912.657959,3623.527344 2915.096924,3625.466797 
	C2931.129883,3638.217529 2949.406738,3646.055908 2969.759766,3648.015381 
	C3017.874268,3652.647217 3060.638672,3638.778564 3098.326172,3609.000244 
	C3112.608398,3597.715088 3123.325439,3583.262207 3132.272949,3567.457764 
	C3134.822998,3562.953125 3137.877686,3558.734619 3140.583496,3554.565674 
	C3157.100098,3561.308350 3210.055664,3592.832031 3224.520752,3604.597412 
	C3215.149902,3633.225830 3198.430664,3657.511963 3175.639648,3679.645020 
M2872.212158,3446.925537 
	C2856.369385,3480.662842 2854.300049,3517.781738 2867.186035,3543.048584 
	C2869.541260,3542.076904 2872.084717,3541.328369 2874.331787,3540.056152 
	C2938.082275,3503.964844 3001.804199,3467.822510 3065.513672,3431.658691 
	C3066.052246,3431.353271 3066.471924,3430.697754 3066.749023,3430.112061 
	C3067.009766,3429.562012 3067.007324,3428.887451 3067.393555,3426.777588 
	C3051.106201,3405.207520 3028.759521,3391.372070 3001.371582,3388.027832 
	C2948.098389,3381.523438 2904.349365,3398.593018 2872.212158,3446.925537 
z"/>
<path fill="#FCF7E5" opacity="1.000000" stroke="none" 
	d="
M3223.777344,3188.315918 
	C3184.012939,3136.389160 3145.088867,3085.610596 3106.224854,3034.786377 
	C3105.486084,3033.820801 3105.459229,3032.310547 3105.101562,3031.054199 
	C3115.465332,3020.041504 3179.030518,2970.815918 3196.765869,2960.166016 
	C3203.059326,2962.728271 3205.997314,2969.001953 3209.927002,2974.105469 
	C3276.208740,3060.185791 3342.404785,3146.332275 3408.625244,3232.459473 
	C3433.813477,3265.219727 3458.929688,3298.035889 3484.280518,3330.669922 
	C3489.572266,3337.481934 3495.192139,3344.239014 3501.632812,3349.919434 
	C3518.903564,3365.150391 3536.733398,3366.525391 3556.834717,3354.998291 
	C3568.019287,3348.584229 3577.063477,3339.832520 3584.210938,3329.144287 
	C3587.151611,3324.746582 3589.807129,3320.157959 3592.890381,3315.174072 
	C3594.875732,3315.897705 3597.081055,3316.016357 3598.109131,3317.177734 
	C3618.412842,3340.098877 3638.579590,3363.141113 3659.224854,3386.672119 
	C3656.779785,3391.294678 3655.119873,3395.630371 3652.476318,3399.247070 
	C3623.947021,3438.284424 3587.084961,3465.340088 3539.510498,3476.430908 
	C3506.638672,3484.094238 3476.020020,3477.457031 3447.399170,3460.363770 
	C3428.255859,3448.931152 3412.587646,3433.580566 3398.974365,3416.087646 
	C3384.238525,3397.152100 3369.697998,3378.064209 3355.069092,3359.045166 
	C3311.588135,3302.515869 3268.105957,3245.987793 3223.777344,3188.315918 
z"/>
<path fill="#26A3F0" opacity="1.000000" stroke="none" 
	d="
M3849.994629,2653.598633 
	C3852.991699,2655.356934 3854.746094,2656.314941 3856.429932,2657.383545 
	C3934.798828,2707.125244 3921.945557,2800.910645 3876.995361,2847.557129 
	C3852.969482,2872.489990 3822.937988,2883.657227 3788.884277,2882.883545 
	C3757.657471,2882.173828 3728.656738,2872.817139 3702.816406,2854.873047 
	C3662.489258,2826.869141 3644.487061,2780.645996 3654.678955,2732.534180 
	C3657.739990,2718.084229 3662.661865,2704.401123 3669.983887,2691.609375 
	C3697.782715,2643.045410 3746.554443,2629.309570 3786.179199,2633.595703 
	C3808.211670,2635.978760 3829.136963,2642.323975 3849.994629,2653.598633 
z"/>
<path fill="#28A4F0" opacity="1.000000" stroke="none" 
	d="
M2872.939209,3445.619629 
	C2904.349365,3398.593018 2948.098389,3381.523438 3001.371582,3388.027832 
	C3028.759521,3391.372070 3051.106201,3405.207520 3067.393555,3426.777588 
	C3067.007324,3428.887451 3067.009766,3429.562012 3066.749023,3430.112061 
	C3066.471924,3430.697754 3066.052246,3431.353271 3065.513672,3431.658691 
	C3001.804199,3467.822510 2938.082275,3503.964844 2874.331787,3540.056152 
	C2872.084717,3541.328369 2869.541260,3542.076904 2867.186035,3543.048584 
	C2854.300049,3517.781738 2856.369385,3480.662842 2872.939209,3445.619629 
z"/>
</svg>